<svg width="20" height="20" viewBox="0 0 20 20" fill="none" xmlns="http://www.w3.org/2000/svg">
<g clip-path="url(#clip0_9_144)">
<circle cx="10" cy="10" r="10" fill="#121210"/>
<path d="M7.91641 16.2501C9.06645 16.2501 9.99981 15.3168 9.99981 14.1667V12.0833H7.91641C6.76637 12.0833 5.83301 13.0167 5.83301 14.1667C5.83301 15.3168 6.76637 16.2501 7.91641 16.2501Z" fill="#0ACF83"/>
<path d="M5.83301 10.0001C5.83301 8.85011 6.76637 7.91675 7.91641 7.91675H9.99981V12.0836H7.91641C6.76637 12.0836 5.83301 11.1502 5.83301 10.0001Z" fill="#A259FF"/>
<path d="M5.83301 5.83322C5.83301 4.68318 6.76637 3.74982 7.91641 3.74982H9.99981V7.91662H7.91641C6.76637 7.91662 5.83301 6.98326 5.83301 5.83322Z" fill="#F24E1E"/>
<path d="M10 3.74982H12.0834C13.2334 3.74982 14.1668 4.68318 14.1668 5.83322C14.1668 6.98326 13.2334 7.91662 12.0834 7.91662H10V3.74982Z" fill="#FF7262"/>
<path d="M14.1668 10.0001C14.1668 11.1502 13.2334 12.0836 12.0834 12.0836C10.9334 12.0836 10 11.1502 10 10.0001C10 8.85011 10.9334 7.91675 12.0834 7.91675C13.2334 7.91675 14.1668 8.85011 14.1668 10.0001Z" fill="#1ABCFE"/>
</g>
<defs>
<clipPath id="clip0_9_144">
<rect width="20" height="20" fill="white"/>
</clipPath>
</defs>
</svg>
