<svg width="20" height="20" viewBox="0 0 20 20" fill="none" xmlns="http://www.w3.org/2000/svg">
<g clip-path="url(#clip0_53_603)">
<path fill-rule="evenodd" clip-rule="evenodd" d="M10 0C4.47715 0 0 4.47715 0 10C0 15.5228 4.47715 20 10 20C15.5228 20 20 15.5228 20 10C20 4.47715 15.5228 0 10 0ZM9.17333 5.95833C9.07333 5.45833 8.76083 5.20833 8.23583 5.20833C7.99833 5.20833 7.54167 5.30833 6.86667 5.50833C6.19167 5.695 5.60417 5.87083 5.10417 6.03333V6.82167H6.97917L8.405 14.845L10.2608 14.715C12.0858 12.4025 13.3158 10.6717 13.9533 9.52167C14.6033 8.35917 14.9283 7.39 14.9283 6.615C14.9283 6.15167 14.7917 5.8025 14.5167 5.565C14.2542 5.3275 13.9225 5.20833 13.5225 5.20833C12.7725 5.20833 12.1475 5.5275 11.6475 6.165C12.135 6.49 12.4667 6.75833 12.6417 6.97083C12.8292 7.17083 12.9233 7.43917 12.9233 7.77667C12.9233 8.33917 12.7542 8.97667 12.4167 9.68917C12.0917 10.4017 11.735 11.0333 11.3475 11.5833C11.0975 11.9333 10.78 12.365 10.3925 12.8775L9.17333 5.95833Z" fill="#20C997"/>
</g>
<defs>
<clipPath id="clip0_53_603">
<rect width="20" height="20" fill="white"/>
</clipPath>
</defs>
</svg>
